<svg viewBox="0 0 1331.2 1331.2"  version="1.1" xmlns="http://www.w3.org/2000/svg">
<g id="qubit_dots">
<circle id="qubit_dot:0:0_0:0" cx="80" cy="80" r="2" stroke="none" fill="black"/>
<circle id="qubit_dot:1:1_0:0" cx="144" cy="80" r="2" stroke="none" fill="black"/>
<circle id="qubit_dot:2:2_0:0" cx="208" cy="80" r="2" stroke="none" fill="black"/>
<circle id="qubit_dot:3:3_0:0" cx="272" cy="80" r="2" stroke="none" fill="black"/>
<circle id="qubit_dot:4:4_0:0" cx="336" cy="80" r="2" stroke="none" fill="black"/>
<circle id="qubit_dot:5:0_1:0" cx="80" cy="144" r="2" stroke="none" fill="black"/>
<circle id="qubit_dot:6:1_1:0" cx="144" cy="144" r="2" stroke="none" fill="black"/>
<circle id="qubit_dot:7:2_1:0" cx="208" cy="144" r="2" stroke="none" fill="black"/>
<circle id="qubit_dot:8:3_1:0" cx="272" cy="144" r="2" stroke="none" fill="black"/>
<circle id="qubit_dot:9:4_1:0" cx="336" cy="144" r="2" stroke="none" fill="black"/>
<circle id="qubit_dot:10:0_2:0" cx="80" cy="208" r="2" stroke="none" fill="black"/>
<circle id="qubit_dot:11:1_2:0" cx="144" cy="208" r="2" stroke="none" fill="black"/>
<circle id="qubit_dot:12:2_2:0" cx="208" cy="208" r="2" stroke="none" fill="black"/>
<circle id="qubit_dot:13:3_2:0" cx="272" cy="208" r="2" stroke="none" fill="black"/>
<circle id="qubit_dot:14:4_2:0" cx="336" cy="208" r="2" stroke="none" fill="black"/>
<circle id="qubit_dot:15:0_3:0" cx="80" cy="272" r="2" stroke="none" fill="black"/>
<circle id="qubit_dot:16:1_3:0" cx="144" cy="272" r="2" stroke="none" fill="black"/>
<circle id="qubit_dot:17:2_3:0" cx="208" cy="272" r="2" stroke="none" fill="black"/>
<circle id="qubit_dot:18:3_3:0" cx="272" cy="272" r="2" stroke="none" fill="black"/>
<circle id="qubit_dot:19:4_3:0" cx="336" cy="272" r="2" stroke="none" fill="black"/>
<circle id="qubit_dot:20:0_4:0" cx="80" cy="336" r="2" stroke="none" fill="black"/>
<circle id="qubit_dot:21:1_4:0" cx="144" cy="336" r="2" stroke="none" fill="black"/>
<circle id="qubit_dot:22:2_4:0" cx="208" cy="336" r="2" stroke="none" fill="black"/>
<circle id="qubit_dot:23:3_4:0" cx="272" cy="336" r="2" stroke="none" fill="black"/>
<circle id="qubit_dot:24:4_4:0" cx="336" cy="336" r="2" stroke="none" fill="black"/>
<circle id="qubit_dot:0:0_0:0" cx="80" cy="537.6" r="2" stroke="none" fill="black"/>
<circle id="qubit_dot:1:1_0:0" cx="144" cy="537.6" r="2" stroke="none" fill="black"/>
<circle id="qubit_dot:2:2_0:0" cx="208" cy="537.6" r="2" stroke="none" fill="black"/>
<circle id="qubit_dot:3:3_0:0" cx="272" cy="537.6" r="2" stroke="none" fill="black"/>
<circle id="qubit_dot:4:4_0:0" cx="336" cy="537.6" r="2" stroke="none" fill="black"/>
<circle id="qubit_dot:5:0_1:0" cx="80" cy="601.6" r="2" stroke="none" fill="black"/>
<circle id="qubit_dot:6:1_1:0" cx="144" cy="601.6" r="2" stroke="none" fill="black"/>
<circle id="qubit_dot:7:2_1:0" cx="208" cy="601.6" r="2" stroke="none" fill="black"/>
<circle id="qubit_dot:8:3_1:0" cx="272" cy="601.6" r="2" stroke="none" fill="black"/>
<circle id="qubit_dot:9:4_1:0" cx="336" cy="601.6" r="2" stroke="none" fill="black"/>
<circle id="qubit_dot:10:0_2:0" cx="80" cy="665.6" r="2" stroke="none" fill="black"/>
<circle id="qubit_dot:11:1_2:0" cx="144" cy="665.6" r="2" stroke="none" fill="black"/>
<circle id="qubit_dot:12:2_2:0" cx="208" cy="665.6" r="2" stroke="none" fill="black"/>
<circle id="qubit_dot:13:3_2:0" cx="272" cy="665.6" r="2" stroke="none" fill="black"/>
<circle id="qubit_dot:14:4_2:0" cx="336" cy="665.6" r="2" stroke="none" fill="black"/>
<circle id="qubit_dot:15:0_3:0" cx="80" cy="729.6" r="2" stroke="none" fill="black"/>
<circle id="qubit_dot:16:1_3:0" cx="144" cy="729.6" r="2" stroke="none" fill="black"/>
<circle id="qubit_dot:17:2_3:0" cx="208" cy="729.6" r="2" stroke="none" fill="black"/>
<circle id="qubit_dot:18:3_3:0" cx="272" cy="729.6" r="2" stroke="none" fill="black"/>
<circle id="qubit_dot:19:4_3:0" cx="336" cy="729.6" r="2" stroke="none" fill="black"/>
<circle id="qubit_dot:20:0_4:0" cx="80" cy="793.6" r="2" stroke="none" fill="black"/>
<circle id="qubit_dot:21:1_4:0" cx="144" cy="793.6" r="2" stroke="none" fill="black"/>
<circle id="qubit_dot:22:2_4:0" cx="208" cy="793.6" r="2" stroke="none" fill="black"/>
<circle id="qubit_dot:23:3_4:0" cx="272" cy="793.6" r="2" stroke="none" fill="black"/>
<circle id="qubit_dot:24:4_4:0" cx="336" cy="793.6" r="2" stroke="none" fill="black"/>
<circle id="qubit_dot:0:0_0:0" cx="80" cy="995.2" r="2" stroke="none" fill="black"/>
<circle id="qubit_dot:1:1_0:0" cx="144" cy="995.2" r="2" stroke="none" fill="black"/>
<circle id="qubit_dot:2:2_0:0" cx="208" cy="995.2" r="2" stroke="none" fill="black"/>
<circle id="qubit_dot:3:3_0:0" cx="272" cy="995.2" r="2" stroke="none" fill="black"/>
<circle id="qubit_dot:4:4_0:0" cx="336" cy="995.2" r="2" stroke="none" fill="black"/>
<circle id="qubit_dot:5:0_1:0" cx="80" cy="1059.2" r="2" stroke="none" fill="black"/>
<circle id="qubit_dot:6:1_1:0" cx="144" cy="1059.2" r="2" stroke="none" fill="black"/>
<circle id="qubit_dot:7:2_1:0" cx="208" cy="1059.2" r="2" stroke="none" fill="black"/>
<circle id="qubit_dot:8:3_1:0" cx="272" cy="1059.2" r="2" stroke="none" fill="black"/>
<circle id="qubit_dot:9:4_1:0" cx="336" cy="1059.2" r="2" stroke="none" fill="black"/>
<circle id="qubit_dot:10:0_2:0" cx="80" cy="1123.2" r="2" stroke="none" fill="black"/>
<circle id="qubit_dot:11:1_2:0" cx="144" cy="1123.2" r="2" stroke="none" fill="black"/>
<circle id="qubit_dot:12:2_2:0" cx="208" cy="1123.2" r="2" stroke="none" fill="black"/>
<circle id="qubit_dot:13:3_2:0" cx="272" cy="1123.2" r="2" stroke="none" fill="black"/>
<circle id="qubit_dot:14:4_2:0" cx="336" cy="1123.2" r="2" stroke="none" fill="black"/>
<circle id="qubit_dot:15:0_3:0" cx="80" cy="1187.2" r="2" stroke="none" fill="black"/>
<circle id="qubit_dot:16:1_3:0" cx="144" cy="1187.2" r="2" stroke="none" fill="black"/>
<circle id="qubit_dot:17:2_3:0" cx="208" cy="1187.2" r="2" stroke="none" fill="black"/>
<circle id="qubit_dot:18:3_3:0" cx="272" cy="1187.2" r="2" stroke="none" fill="black"/>
<circle id="qubit_dot:19:4_3:0" cx="336" cy="1187.2" r="2" stroke="none" fill="black"/>
<circle id="qubit_dot:20:0_4:0" cx="80" cy="1251.2" r="2" stroke="none" fill="black"/>
<circle id="qubit_dot:21:1_4:0" cx="144" cy="1251.2" r="2" stroke="none" fill="black"/>
<circle id="qubit_dot:22:2_4:0" cx="208" cy="1251.2" r="2" stroke="none" fill="black"/>
<circle id="qubit_dot:23:3_4:0" cx="272" cy="1251.2" r="2" stroke="none" fill="black"/>
<circle id="qubit_dot:24:4_4:0" cx="336" cy="1251.2" r="2" stroke="none" fill="black"/>
<circle id="qubit_dot:0:0_0:1" cx="537.6" cy="80" r="2" stroke="none" fill="black"/>
<circle id="qubit_dot:1:1_0:1" cx="601.6" cy="80" r="2" stroke="none" fill="black"/>
<circle id="qubit_dot:2:2_0:1" cx="665.6" cy="80" r="2" stroke="none" fill="black"/>
<circle id="qubit_dot:3:3_0:1" cx="729.6" cy="80" r="2" stroke="none" fill="black"/>
<circle id="qubit_dot:4:4_0:1" cx="793.6" cy="80" r="2" stroke="none" fill="black"/>
<circle id="qubit_dot:5:0_1:1" cx="537.6" cy="144" r="2" stroke="none" fill="black"/>
<circle id="qubit_dot:6:1_1:1" cx="601.6" cy="144" r="2" stroke="none" fill="black"/>
<circle id="qubit_dot:7:2_1:1" cx="665.6" cy="144" r="2" stroke="none" fill="black"/>
<circle id="qubit_dot:8:3_1:1" cx="729.6" cy="144" r="2" stroke="none" fill="black"/>
<circle id="qubit_dot:9:4_1:1" cx="793.6" cy="144" r="2" stroke="none" fill="black"/>
<circle id="qubit_dot:10:0_2:1" cx="537.6" cy="208" r="2" stroke="none" fill="black"/>
<circle id="qubit_dot:11:1_2:1" cx="601.6" cy="208" r="2" stroke="none" fill="black"/>
<circle id="qubit_dot:12:2_2:1" cx="665.6" cy="208" r="2" stroke="none" fill="black"/>
<circle id="qubit_dot:13:3_2:1" cx="729.6" cy="208" r="2" stroke="none" fill="black"/>
<circle id="qubit_dot:14:4_2:1" cx="793.6" cy="208" r="2" stroke="none" fill="black"/>
<circle id="qubit_dot:15:0_3:1" cx="537.6" cy="272" r="2" stroke="none" fill="black"/>
<circle id="qubit_dot:16:1_3:1" cx="601.6" cy="272" r="2" stroke="none" fill="black"/>
<circle id="qubit_dot:17:2_3:1" cx="665.6" cy="272" r="2" stroke="none" fill="black"/>
<circle id="qubit_dot:18:3_3:1" cx="729.6" cy="272" r="2" stroke="none" fill="black"/>
<circle id="qubit_dot:19:4_3:1" cx="793.6" cy="272" r="2" stroke="none" fill="black"/>
<circle id="qubit_dot:20:0_4:1" cx="537.6" cy="336" r="2" stroke="none" fill="black"/>
<circle id="qubit_dot:21:1_4:1" cx="601.6" cy="336" r="2" stroke="none" fill="black"/>
<circle id="qubit_dot:22:2_4:1" cx="665.6" cy="336" r="2" stroke="none" fill="black"/>
<circle id="qubit_dot:23:3_4:1" cx="729.6" cy="336" r="2" stroke="none" fill="black"/>
<circle id="qubit_dot:24:4_4:1" cx="793.6" cy="336" r="2" stroke="none" fill="black"/>
<circle id="qubit_dot:0:0_0:1" cx="537.6" cy="537.6" r="2" stroke="none" fill="black"/>
<circle id="qubit_dot:1:1_0:1" cx="601.6" cy="537.6" r="2" stroke="none" fill="black"/>
<circle id="qubit_dot:2:2_0:1" cx="665.6" cy="537.6" r="2" stroke="none" fill="black"/>
<circle id="qubit_dot:3:3_0:1" cx="729.6" cy="537.6" r="2" stroke="none" fill="black"/>
<circle id="qubit_dot:4:4_0:1" cx="793.6" cy="537.6" r="2" stroke="none" fill="black"/>
<circle id="qubit_dot:5:0_1:1" cx="537.6" cy="601.6" r="2" stroke="none" fill="black"/>
<circle id="qubit_dot:6:1_1:1" cx="601.6" cy="601.6" r="2" stroke="none" fill="black"/>
<circle id="qubit_dot:7:2_1:1" cx="665.6" cy="601.6" r="2" stroke="none" fill="black"/>
<circle id="qubit_dot:8:3_1:1" cx="729.6" cy="601.6" r="2" stroke="none" fill="black"/>
<circle id="qubit_dot:9:4_1:1" cx="793.6" cy="601.6" r="2" stroke="none" fill="black"/>
<circle id="qubit_dot:10:0_2:1" cx="537.6" cy="665.6" r="2" stroke="none" fill="black"/>
<circle id="qubit_dot:11:1_2:1" cx="601.6" cy="665.6" r="2" stroke="none" fill="black"/>
<circle id="qubit_dot:12:2_2:1" cx="665.6" cy="665.6" r="2" stroke="none" fill="black"/>
<circle id="qubit_dot:13:3_2:1" cx="729.6" cy="665.6" r="2" stroke="none" fill="black"/>
<circle id="qubit_dot:14:4_2:1" cx="793.6" cy="665.6" r="2" stroke="none" fill="black"/>
<circle id="qubit_dot:15:0_3:1" cx="537.6" cy="729.6" r="2" stroke="none" fill="black"/>
<circle id="qubit_dot:16:1_3:1" cx="601.6" cy="729.6" r="2" stroke="none" fill="black"/>
<circle id="qubit_dot:17:2_3:1" cx="665.6" cy="729.6" r="2" stroke="none" fill="black"/>
<circle id="qubit_dot:18:3_3:1" cx="729.6" cy="729.6" r="2" stroke="none" fill="black"/>
<circle id="qubit_dot:19:4_3:1" cx="793.6" cy="729.6" r="2" stroke="none" fill="black"/>
<circle id="qubit_dot:20:0_4:1" cx="537.6" cy="793.6" r="2" stroke="none" fill="black"/>
<circle id="qubit_dot:21:1_4:1" cx="601.6" cy="793.6" r="2" stroke="none" fill="black"/>
<circle id="qubit_dot:22:2_4:1" cx="665.6" cy="793.6" r="2" stroke="none" fill="black"/>
<circle id="qubit_dot:23:3_4:1" cx="729.6" cy="793.6" r="2" stroke="none" fill="black"/>
<circle id="qubit_dot:24:4_4:1" cx="793.6" cy="793.6" r="2" stroke="none" fill="black"/>
<circle id="qubit_dot:0:0_0:1" cx="537.6" cy="995.2" r="2" stroke="none" fill="black"/>
<circle id="qubit_dot:1:1_0:1" cx="601.6" cy="995.2" r="2" stroke="none" fill="black"/>
<circle id="qubit_dot:2:2_0:1" cx="665.6" cy="995.2" r="2" stroke="none" fill="black"/>
<circle id="qubit_dot:3:3_0:1" cx="729.6" cy="995.2" r="2" stroke="none" fill="black"/>
<circle id="qubit_dot:4:4_0:1" cx="793.6" cy="995.2" r="2" stroke="none" fill="black"/>
<circle id="qubit_dot:5:0_1:1" cx="537.6" cy="1059.2" r="2" stroke="none" fill="black"/>
<circle id="qubit_dot:6:1_1:1" cx="601.6" cy="1059.2" r="2" stroke="none" fill="black"/>
<circle id="qubit_dot:7:2_1:1" cx="665.6" cy="1059.2" r="2" stroke="none" fill="black"/>
<circle id="qubit_dot:8:3_1:1" cx="729.6" cy="1059.2" r="2" stroke="none" fill="black"/>
<circle id="qubit_dot:9:4_1:1" cx="793.6" cy="1059.2" r="2" stroke="none" fill="black"/>
<circle id="qubit_dot:10:0_2:1" cx="537.6" cy="1123.2" r="2" stroke="none" fill="black"/>
<circle id="qubit_dot:11:1_2:1" cx="601.6" cy="1123.2" r="2" stroke="none" fill="black"/>
<circle id="qubit_dot:12:2_2:1" cx="665.6" cy="1123.2" r="2" stroke="none" fill="black"/>
<circle id="qubit_dot:13:3_2:1" cx="729.6" cy="1123.2" r="2" stroke="none" fill="black"/>
<circle id="qubit_dot:14:4_2:1" cx="793.6" cy="1123.2" r="2" stroke="none" fill="black"/>
<circle id="qubit_dot:15:0_3:1" cx="537.6" cy="1187.2" r="2" stroke="none" fill="black"/>
<circle id="qubit_dot:16:1_3:1" cx="601.6" cy="1187.2" r="2" stroke="none" fill="black"/>
<circle id="qubit_dot:17:2_3:1" cx="665.6" cy="1187.2" r="2" stroke="none" fill="black"/>
<circle id="qubit_dot:18:3_3:1" cx="729.6" cy="1187.2" r="2" stroke="none" fill="black"/>
<circle id="qubit_dot:19:4_3:1" cx="793.6" cy="1187.2" r="2" stroke="none" fill="black"/>
<circle id="qubit_dot:20:0_4:1" cx="537.6" cy="1251.2" r="2" stroke="none" fill="black"/>
<circle id="qubit_dot:21:1_4:1" cx="601.6" cy="1251.2" r="2" stroke="none" fill="black"/>
<circle id="qubit_dot:22:2_4:1" cx="665.6" cy="1251.2" r="2" stroke="none" fill="black"/>
<circle id="qubit_dot:23:3_4:1" cx="729.6" cy="1251.2" r="2" stroke="none" fill="black"/>
<circle id="qubit_dot:24:4_4:1" cx="793.6" cy="1251.2" r="2" stroke="none" fill="black"/>
<circle id="qubit_dot:0:0_0:2" cx="995.2" cy="80" r="2" stroke="none" fill="black"/>
<circle id="qubit_dot:1:1_0:2" cx="1059.2" cy="80" r="2" stroke="none" fill="black"/>
<circle id="qubit_dot:2:2_0:2" cx="1123.2" cy="80" r="2" stroke="none" fill="black"/>
<circle id="qubit_dot:3:3_0:2" cx="1187.2" cy="80" r="2" stroke="none" fill="black"/>
<circle id="qubit_dot:4:4_0:2" cx="1251.2" cy="80" r="2" stroke="none" fill="black"/>
<circle id="qubit_dot:5:0_1:2" cx="995.2" cy="144" r="2" stroke="none" fill="black"/>
<circle id="qubit_dot:6:1_1:2" cx="1059.2" cy="144" r="2" stroke="none" fill="black"/>
<circle id="qubit_dot:7:2_1:2" cx="1123.2" cy="144" r="2" stroke="none" fill="black"/>
<circle id="qubit_dot:8:3_1:2" cx="1187.2" cy="144" r="2" stroke="none" fill="black"/>
<circle id="qubit_dot:9:4_1:2" cx="1251.2" cy="144" r="2" stroke="none" fill="black"/>
<circle id="qubit_dot:10:0_2:2" cx="995.2" cy="208" r="2" stroke="none" fill="black"/>
<circle id="qubit_dot:11:1_2:2" cx="1059.2" cy="208" r="2" stroke="none" fill="black"/>
<circle id="qubit_dot:12:2_2:2" cx="1123.2" cy="208" r="2" stroke="none" fill="black"/>
<circle id="qubit_dot:13:3_2:2" cx="1187.2" cy="208" r="2" stroke="none" fill="black"/>
<circle id="qubit_dot:14:4_2:2" cx="1251.2" cy="208" r="2" stroke="none" fill="black"/>
<circle id="qubit_dot:15:0_3:2" cx="995.2" cy="272" r="2" stroke="none" fill="black"/>
<circle id="qubit_dot:16:1_3:2" cx="1059.2" cy="272" r="2" stroke="none" fill="black"/>
<circle id="qubit_dot:17:2_3:2" cx="1123.2" cy="272" r="2" stroke="none" fill="black"/>
<circle id="qubit_dot:18:3_3:2" cx="1187.2" cy="272" r="2" stroke="none" fill="black"/>
<circle id="qubit_dot:19:4_3:2" cx="1251.2" cy="272" r="2" stroke="none" fill="black"/>
<circle id="qubit_dot:20:0_4:2" cx="995.2" cy="336" r="2" stroke="none" fill="black"/>
<circle id="qubit_dot:21:1_4:2" cx="1059.2" cy="336" r="2" stroke="none" fill="black"/>
<circle id="qubit_dot:22:2_4:2" cx="1123.2" cy="336" r="2" stroke="none" fill="black"/>
<circle id="qubit_dot:23:3_4:2" cx="1187.2" cy="336" r="2" stroke="none" fill="black"/>
<circle id="qubit_dot:24:4_4:2" cx="1251.2" cy="336" r="2" stroke="none" fill="black"/>
<circle id="qubit_dot:0:0_0:2" cx="995.2" cy="537.6" r="2" stroke="none" fill="black"/>
<circle id="qubit_dot:1:1_0:2" cx="1059.2" cy="537.6" r="2" stroke="none" fill="black"/>
<circle id="qubit_dot:2:2_0:2" cx="1123.2" cy="537.6" r="2" stroke="none" fill="black"/>
<circle id="qubit_dot:3:3_0:2" cx="1187.2" cy="537.6" r="2" stroke="none" fill="black"/>
<circle id="qubit_dot:4:4_0:2" cx="1251.2" cy="537.6" r="2" stroke="none" fill="black"/>
<circle id="qubit_dot:5:0_1:2" cx="995.2" cy="601.6" r="2" stroke="none" fill="black"/>
<circle id="qubit_dot:6:1_1:2" cx="1059.2" cy="601.6" r="2" stroke="none" fill="black"/>
<circle id="qubit_dot:7:2_1:2" cx="1123.2" cy="601.6" r="2" stroke="none" fill="black"/>
<circle id="qubit_dot:8:3_1:2" cx="1187.2" cy="601.6" r="2" stroke="none" fill="black"/>
<circle id="qubit_dot:9:4_1:2" cx="1251.2" cy="601.6" r="2" stroke="none" fill="black"/>
<circle id="qubit_dot:10:0_2:2" cx="995.2" cy="665.6" r="2" stroke="none" fill="black"/>
<circle id="qubit_dot:11:1_2:2" cx="1059.2" cy="665.6" r="2" stroke="none" fill="black"/>
<circle id="qubit_dot:12:2_2:2" cx="1123.2" cy="665.6" r="2" stroke="none" fill="black"/>
<circle id="qubit_dot:13:3_2:2" cx="1187.2" cy="665.6" r="2" stroke="none" fill="black"/>
<circle id="qubit_dot:14:4_2:2" cx="1251.2" cy="665.6" r="2" stroke="none" fill="black"/>
<circle id="qubit_dot:15:0_3:2" cx="995.2" cy="729.6" r="2" stroke="none" fill="black"/>
<circle id="qubit_dot:16:1_3:2" cx="1059.2" cy="729.6" r="2" stroke="none" fill="black"/>
<circle id="qubit_dot:17:2_3:2" cx="1123.2" cy="729.6" r="2" stroke="none" fill="black"/>
<circle id="qubit_dot:18:3_3:2" cx="1187.2" cy="729.6" r="2" stroke="none" fill="black"/>
<circle id="qubit_dot:19:4_3:2" cx="1251.2" cy="729.6" r="2" stroke="none" fill="black"/>
<circle id="qubit_dot:20:0_4:2" cx="995.2" cy="793.6" r="2" stroke="none" fill="black"/>
<circle id="qubit_dot:21:1_4:2" cx="1059.2" cy="793.6" r="2" stroke="none" fill="black"/>
<circle id="qubit_dot:22:2_4:2" cx="1123.2" cy="793.6" r="2" stroke="none" fill="black"/>
<circle id="qubit_dot:23:3_4:2" cx="1187.2" cy="793.6" r="2" stroke="none" fill="black"/>
<circle id="qubit_dot:24:4_4:2" cx="1251.2" cy="793.6" r="2" stroke="none" fill="black"/>
</g>
<rect x="64" y="64" width="32" height="32" stroke="black" fill="black"/>
<text dominant-baseline="central" text-anchor="middle" font-family="monospace" font-size="30" x="80" y="80" fill="white">R</text>
<rect x="192" y="64" width="32" height="32" stroke="black" fill="black"/>
<text dominant-baseline="central" text-anchor="middle" font-family="monospace" font-size="30" x="208" y="80" fill="white">R</text>
<rect x="320" y="64" width="32" height="32" stroke="black" fill="black"/>
<text dominant-baseline="central" text-anchor="middle" font-family="monospace" font-size="30" x="336" y="80" fill="white">R</text>
<rect x="128" y="128" width="32" height="32" stroke="black" fill="black"/>
<text dominant-baseline="central" text-anchor="middle" font-family="monospace" font-size="30" x="144" y="144" fill="white">R</text>
<rect x="256" y="128" width="32" height="32" stroke="black" fill="black"/>
<text dominant-baseline="central" text-anchor="middle" font-family="monospace" font-size="30" x="272" y="144" fill="white">R</text>
<rect x="64" y="192" width="32" height="32" stroke="black" fill="black"/>
<text dominant-baseline="central" text-anchor="middle" font-family="monospace" font-size="30" x="80" y="208" fill="white">R</text>
<rect x="192" y="192" width="32" height="32" stroke="black" fill="black"/>
<text dominant-baseline="central" text-anchor="middle" font-family="monospace" font-size="30" x="208" y="208" fill="white">R</text>
<rect x="320" y="192" width="32" height="32" stroke="black" fill="black"/>
<text dominant-baseline="central" text-anchor="middle" font-family="monospace" font-size="30" x="336" y="208" fill="white">R</text>
<rect x="128" y="256" width="32" height="32" stroke="black" fill="black"/>
<text dominant-baseline="central" text-anchor="middle" font-family="monospace" font-size="30" x="144" y="272" fill="white">R</text>
<rect x="256" y="256" width="32" height="32" stroke="black" fill="black"/>
<text dominant-baseline="central" text-anchor="middle" font-family="monospace" font-size="30" x="272" y="272" fill="white">R</text>
<rect x="64" y="320" width="32" height="32" stroke="black" fill="black"/>
<text dominant-baseline="central" text-anchor="middle" font-family="monospace" font-size="30" x="80" y="336" fill="white">R</text>
<rect x="192" y="320" width="32" height="32" stroke="black" fill="black"/>
<text dominant-baseline="central" text-anchor="middle" font-family="monospace" font-size="30" x="208" y="336" fill="white">R</text>
<rect x="320" y="320" width="32" height="32" stroke="black" fill="black"/>
<text dominant-baseline="central" text-anchor="middle" font-family="monospace" font-size="30" x="336" y="336" fill="white">R</text>
<rect x="128" y="64" width="32" height="32" stroke="black" fill="black"/>
<text dominant-baseline="central" text-anchor="middle" font-family="monospace" font-size="30" x="144" y="80" fill="white">R</text>
<rect x="256" y="64" width="32" height="32" stroke="black" fill="black"/>
<text dominant-baseline="central" text-anchor="middle" font-family="monospace" font-size="30" x="272" y="80" fill="white">R</text>
<rect x="64" y="128" width="32" height="32" stroke="black" fill="black"/>
<text dominant-baseline="central" text-anchor="middle" font-family="monospace" font-size="30" x="80" y="144" fill="white">R</text>
<rect x="192" y="128" width="32" height="32" stroke="black" fill="black"/>
<text dominant-baseline="central" text-anchor="middle" font-family="monospace" font-size="30" x="208" y="144" fill="white">R</text>
<rect x="320" y="128" width="32" height="32" stroke="black" fill="black"/>
<text dominant-baseline="central" text-anchor="middle" font-family="monospace" font-size="30" x="336" y="144" fill="white">R</text>
<rect x="128" y="192" width="32" height="32" stroke="black" fill="black"/>
<text dominant-baseline="central" text-anchor="middle" font-family="monospace" font-size="30" x="144" y="208" fill="white">R</text>
<rect x="256" y="192" width="32" height="32" stroke="black" fill="black"/>
<text dominant-baseline="central" text-anchor="middle" font-family="monospace" font-size="30" x="272" y="208" fill="white">R</text>
<rect x="64" y="256" width="32" height="32" stroke="black" fill="black"/>
<text dominant-baseline="central" text-anchor="middle" font-family="monospace" font-size="30" x="80" y="272" fill="white">R</text>
<rect x="192" y="256" width="32" height="32" stroke="black" fill="black"/>
<text dominant-baseline="central" text-anchor="middle" font-family="monospace" font-size="30" x="208" y="272" fill="white">R</text>
<rect x="320" y="256" width="32" height="32" stroke="black" fill="black"/>
<text dominant-baseline="central" text-anchor="middle" font-family="monospace" font-size="30" x="336" y="272" fill="white">R</text>
<rect x="128" y="320" width="32" height="32" stroke="black" fill="black"/>
<text dominant-baseline="central" text-anchor="middle" font-family="monospace" font-size="30" x="144" y="336" fill="white">R</text>
<rect x="256" y="320" width="32" height="32" stroke="black" fill="black"/>
<text dominant-baseline="central" text-anchor="middle" font-family="monospace" font-size="30" x="272" y="336" fill="white">R</text>
<rect x="585.6" y="64" width="32" height="32" stroke="black" fill="white"/>
<text dominant-baseline="central" text-anchor="middle" font-family="monospace" font-size="30" x="601.6" y="80">H</text>
<rect x="713.6" y="64" width="32" height="32" stroke="black" fill="white"/>
<text dominant-baseline="central" text-anchor="middle" font-family="monospace" font-size="30" x="729.6" y="80">H</text>
<rect x="585.6" y="192" width="32" height="32" stroke="black" fill="white"/>
<text dominant-baseline="central" text-anchor="middle" font-family="monospace" font-size="30" x="601.6" y="208">H</text>
<rect x="713.6" y="192" width="32" height="32" stroke="black" fill="white"/>
<text dominant-baseline="central" text-anchor="middle" font-family="monospace" font-size="30" x="729.6" y="208">H</text>
<rect x="585.6" y="320" width="32" height="32" stroke="black" fill="white"/>
<text dominant-baseline="central" text-anchor="middle" font-family="monospace" font-size="30" x="601.6" y="336">H</text>
<rect x="713.6" y="320" width="32" height="32" stroke="black" fill="white"/>
<text dominant-baseline="central" text-anchor="middle" font-family="monospace" font-size="30" x="729.6" y="336">H</text>
<path d="M1059.2,80 L1123.2,80 " stroke="black" stroke-width="5"/>
<circle cx="1059.2" cy="80" r="12" stroke="none" fill="black"/>
<circle cx="1123.2" cy="80" r="12" stroke="black" fill="white"/>
<path d="M1111.2,80 L1135.2,80 M1123.2,68 L1123.2,92 " stroke="black"/>
<path d="M1059.2,208 L1123.2,208 " stroke="black" stroke-width="5"/>
<circle cx="1059.2" cy="208" r="12" stroke="none" fill="black"/>
<circle cx="1123.2" cy="208" r="12" stroke="black" fill="white"/>
<path d="M1111.2,208 L1135.2,208 M1123.2,196 L1123.2,220 " stroke="black"/>
<path d="M1059.2,336 L1123.2,336 " stroke="black" stroke-width="5"/>
<circle cx="1059.2" cy="336" r="12" stroke="none" fill="black"/>
<circle cx="1123.2" cy="336" r="12" stroke="black" fill="white"/>
<path d="M1111.2,336 L1135.2,336 M1123.2,324 L1123.2,348 " stroke="black"/>
<path d="M1187.2,80 L1251.2,80 " stroke="black" stroke-width="5"/>
<circle cx="1187.2" cy="80" r="12" stroke="none" fill="black"/>
<circle cx="1251.2" cy="80" r="12" stroke="black" fill="white"/>
<path d="M1239.2,80 L1263.2,80 M1251.2,68 L1251.2,92 " stroke="black"/>
<path d="M1187.2,208 L1251.2,208 " stroke="black" stroke-width="5"/>
<circle cx="1187.2" cy="208" r="12" stroke="none" fill="black"/>
<circle cx="1251.2" cy="208" r="12" stroke="black" fill="white"/>
<path d="M1239.2,208 L1263.2,208 M1251.2,196 L1251.2,220 " stroke="black"/>
<path d="M1187.2,336 L1251.2,336 " stroke="black" stroke-width="5"/>
<circle cx="1187.2" cy="336" r="12" stroke="none" fill="black"/>
<circle cx="1251.2" cy="336" r="12" stroke="black" fill="white"/>
<path d="M1239.2,336 L1263.2,336 M1251.2,324 L1251.2,348 " stroke="black"/>
<path d="M1059.2,144 L995.2,144 " stroke="black" stroke-width="5"/>
<circle cx="1059.2" cy="144" r="12" stroke="none" fill="black"/>
<circle cx="995.2" cy="144" r="12" stroke="black" fill="white"/>
<path d="M983.2,144 L1007.2,144 M995.2,132 L995.2,156 " stroke="black"/>
<path d="M1059.2,272 L995.2,272 " stroke="black" stroke-width="5"/>
<circle cx="1059.2" cy="272" r="12" stroke="none" fill="black"/>
<circle cx="995.2" cy="272" r="12" stroke="black" fill="white"/>
<path d="M983.2,272 L1007.2,272 M995.2,260 L995.2,284 " stroke="black"/>
<path d="M1187.2,144 L1123.2,144 " stroke="black" stroke-width="5"/>
<circle cx="1187.2" cy="144" r="12" stroke="none" fill="black"/>
<circle cx="1123.2" cy="144" r="12" stroke="black" fill="white"/>
<path d="M1111.2,144 L1135.2,144 M1123.2,132 L1123.2,156 " stroke="black"/>
<path d="M1187.2,272 L1123.2,272 " stroke="black" stroke-width="5"/>
<circle cx="1187.2" cy="272" r="12" stroke="none" fill="black"/>
<circle cx="1123.2" cy="272" r="12" stroke="black" fill="white"/>
<path d="M1111.2,272 L1135.2,272 M1123.2,260 L1123.2,284 " stroke="black"/>
<path d="M144,537.6 L144,601.6 " stroke="black" stroke-width="5"/>
<circle cx="144" cy="537.6" r="12" stroke="none" fill="black"/>
<circle cx="144" cy="601.6" r="12" stroke="black" fill="white"/>
<path d="M132,601.6 L156,601.6 M144,589.6 L144,613.6 " stroke="black"/>
<path d="M144,665.6 L144,729.6 " stroke="black" stroke-width="5"/>
<circle cx="144" cy="665.6" r="12" stroke="none" fill="black"/>
<circle cx="144" cy="729.6" r="12" stroke="black" fill="white"/>
<path d="M132,729.6 L156,729.6 M144,717.6 L144,741.6 " stroke="black"/>
<path d="M272,537.6 L272,601.6 " stroke="black" stroke-width="5"/>
<circle cx="272" cy="537.6" r="12" stroke="none" fill="black"/>
<circle cx="272" cy="601.6" r="12" stroke="black" fill="white"/>
<path d="M260,601.6 L284,601.6 M272,589.6 L272,613.6 " stroke="black"/>
<path d="M272,665.6 L272,729.6 " stroke="black" stroke-width="5"/>
<circle cx="272" cy="665.6" r="12" stroke="none" fill="black"/>
<circle cx="272" cy="729.6" r="12" stroke="black" fill="white"/>
<path d="M260,729.6 L284,729.6 M272,717.6 L272,741.6 " stroke="black"/>
<path d="M80,665.6 L80,601.6 " stroke="black" stroke-width="5"/>
<circle cx="80" cy="665.6" r="12" stroke="none" fill="black"/>
<circle cx="80" cy="601.6" r="12" stroke="black" fill="white"/>
<path d="M68,601.6 L92,601.6 M80,589.6 L80,613.6 " stroke="black"/>
<path d="M80,793.6 L80,729.6 " stroke="black" stroke-width="5"/>
<circle cx="80" cy="793.6" r="12" stroke="none" fill="black"/>
<circle cx="80" cy="729.6" r="12" stroke="black" fill="white"/>
<path d="M68,729.6 L92,729.6 M80,717.6 L80,741.6 " stroke="black"/>
<path d="M208,665.6 L208,601.6 " stroke="black" stroke-width="5"/>
<circle cx="208" cy="665.6" r="12" stroke="none" fill="black"/>
<circle cx="208" cy="601.6" r="12" stroke="black" fill="white"/>
<path d="M196,601.6 L220,601.6 M208,589.6 L208,613.6 " stroke="black"/>
<path d="M208,793.6 L208,729.6 " stroke="black" stroke-width="5"/>
<circle cx="208" cy="793.6" r="12" stroke="none" fill="black"/>
<circle cx="208" cy="729.6" r="12" stroke="black" fill="white"/>
<path d="M196,729.6 L220,729.6 M208,717.6 L208,741.6 " stroke="black"/>
<path d="M336,665.6 L336,601.6 " stroke="black" stroke-width="5"/>
<circle cx="336" cy="665.6" r="12" stroke="none" fill="black"/>
<circle cx="336" cy="601.6" r="12" stroke="black" fill="white"/>
<path d="M324,601.6 L348,601.6 M336,589.6 L336,613.6 " stroke="black"/>
<path d="M336,793.6 L336,729.6 " stroke="black" stroke-width="5"/>
<circle cx="336" cy="793.6" r="12" stroke="none" fill="black"/>
<circle cx="336" cy="729.6" r="12" stroke="black" fill="white"/>
<path d="M324,729.6 L348,729.6 M336,717.6 L336,741.6 " stroke="black"/>
<path d="M601.6,665.6 L601.6,601.6 " stroke="black" stroke-width="5"/>
<circle cx="601.6" cy="665.6" r="12" stroke="none" fill="black"/>
<circle cx="601.6" cy="601.6" r="12" stroke="black" fill="white"/>
<path d="M589.6,601.6 L613.6,601.6 M601.6,589.6 L601.6,613.6 " stroke="black"/>
<path d="M601.6,793.6 L601.6,729.6 " stroke="black" stroke-width="5"/>
<circle cx="601.6" cy="793.6" r="12" stroke="none" fill="black"/>
<circle cx="601.6" cy="729.6" r="12" stroke="black" fill="white"/>
<path d="M589.6,729.6 L613.6,729.6 M601.6,717.6 L601.6,741.6 " stroke="black"/>
<path d="M729.6,665.6 L729.6,601.6 " stroke="black" stroke-width="5"/>
<circle cx="729.6" cy="665.6" r="12" stroke="none" fill="black"/>
<circle cx="729.6" cy="601.6" r="12" stroke="black" fill="white"/>
<path d="M717.6,601.6 L741.6,601.6 M729.6,589.6 L729.6,613.6 " stroke="black"/>
<path d="M729.6,793.6 L729.6,729.6 " stroke="black" stroke-width="5"/>
<circle cx="729.6" cy="793.6" r="12" stroke="none" fill="black"/>
<circle cx="729.6" cy="729.6" r="12" stroke="black" fill="white"/>
<path d="M717.6,729.6 L741.6,729.6 M729.6,717.6 L729.6,741.6 " stroke="black"/>
<path d="M537.6,537.6 L537.6,601.6 " stroke="black" stroke-width="5"/>
<circle cx="537.6" cy="537.6" r="12" stroke="none" fill="black"/>
<circle cx="537.6" cy="601.6" r="12" stroke="black" fill="white"/>
<path d="M525.6,601.6 L549.6,601.6 M537.6,589.6 L537.6,613.6 " stroke="black"/>
<path d="M537.6,665.6 L537.6,729.6 " stroke="black" stroke-width="5"/>
<circle cx="537.6" cy="665.6" r="12" stroke="none" fill="black"/>
<circle cx="537.6" cy="729.6" r="12" stroke="black" fill="white"/>
<path d="M525.6,729.6 L549.6,729.6 M537.6,717.6 L537.6,741.6 " stroke="black"/>
<path d="M665.6,537.6 L665.6,601.6 " stroke="black" stroke-width="5"/>
<circle cx="665.6" cy="537.6" r="12" stroke="none" fill="black"/>
<circle cx="665.6" cy="601.6" r="12" stroke="black" fill="white"/>
<path d="M653.6,601.6 L677.6,601.6 M665.6,589.6 L665.6,613.6 " stroke="black"/>
<path d="M665.6,665.6 L665.6,729.6 " stroke="black" stroke-width="5"/>
<circle cx="665.6" cy="665.6" r="12" stroke="none" fill="black"/>
<circle cx="665.6" cy="729.6" r="12" stroke="black" fill="white"/>
<path d="M653.6,729.6 L677.6,729.6 M665.6,717.6 L665.6,741.6 " stroke="black"/>
<path d="M793.6,537.6 L793.6,601.6 " stroke="black" stroke-width="5"/>
<circle cx="793.6" cy="537.6" r="12" stroke="none" fill="black"/>
<circle cx="793.6" cy="601.6" r="12" stroke="black" fill="white"/>
<path d="M781.6,601.6 L805.6,601.6 M793.6,589.6 L793.6,613.6 " stroke="black"/>
<path d="M793.6,665.6 L793.6,729.6 " stroke="black" stroke-width="5"/>
<circle cx="793.6" cy="665.6" r="12" stroke="none" fill="black"/>
<circle cx="793.6" cy="729.6" r="12" stroke="black" fill="white"/>
<path d="M781.6,729.6 L805.6,729.6 M793.6,717.6 L793.6,741.6 " stroke="black"/>
<path d="M1059.2,537.6 L995.2,537.6 " stroke="black" stroke-width="5"/>
<circle cx="1059.2" cy="537.6" r="12" stroke="none" fill="black"/>
<circle cx="995.2" cy="537.6" r="12" stroke="black" fill="white"/>
<path d="M983.2,537.6 L1007.2,537.6 M995.2,525.6 L995.2,549.6 " stroke="black"/>
<path d="M1059.2,665.6 L995.2,665.6 " stroke="black" stroke-width="5"/>
<circle cx="1059.2" cy="665.6" r="12" stroke="none" fill="black"/>
<circle cx="995.2" cy="665.6" r="12" stroke="black" fill="white"/>
<path d="M983.2,665.6 L1007.2,665.6 M995.2,653.6 L995.2,677.6 " stroke="black"/>
<path d="M1059.2,793.6 L995.2,793.6 " stroke="black" stroke-width="5"/>
<circle cx="1059.2" cy="793.6" r="12" stroke="none" fill="black"/>
<circle cx="995.2" cy="793.6" r="12" stroke="black" fill="white"/>
<path d="M983.2,793.6 L1007.2,793.6 M995.2,781.6 L995.2,805.6 " stroke="black"/>
<path d="M1187.2,537.6 L1123.2,537.6 " stroke="black" stroke-width="5"/>
<circle cx="1187.2" cy="537.6" r="12" stroke="none" fill="black"/>
<circle cx="1123.2" cy="537.6" r="12" stroke="black" fill="white"/>
<path d="M1111.2,537.6 L1135.2,537.6 M1123.2,525.6 L1123.2,549.6 " stroke="black"/>
<path d="M1187.2,665.6 L1123.2,665.6 " stroke="black" stroke-width="5"/>
<circle cx="1187.2" cy="665.6" r="12" stroke="none" fill="black"/>
<circle cx="1123.2" cy="665.6" r="12" stroke="black" fill="white"/>
<path d="M1111.2,665.6 L1135.2,665.6 M1123.2,653.6 L1123.2,677.6 " stroke="black"/>
<path d="M1187.2,793.6 L1123.2,793.6 " stroke="black" stroke-width="5"/>
<circle cx="1187.2" cy="793.6" r="12" stroke="none" fill="black"/>
<circle cx="1123.2" cy="793.6" r="12" stroke="black" fill="white"/>
<path d="M1111.2,793.6 L1135.2,793.6 M1123.2,781.6 L1123.2,805.6 " stroke="black"/>
<path d="M1059.2,601.6 L1123.2,601.6 " stroke="black" stroke-width="5"/>
<circle cx="1059.2" cy="601.6" r="12" stroke="none" fill="black"/>
<circle cx="1123.2" cy="601.6" r="12" stroke="black" fill="white"/>
<path d="M1111.2,601.6 L1135.2,601.6 M1123.2,589.6 L1123.2,613.6 " stroke="black"/>
<path d="M1059.2,729.6 L1123.2,729.6 " stroke="black" stroke-width="5"/>
<circle cx="1059.2" cy="729.6" r="12" stroke="none" fill="black"/>
<circle cx="1123.2" cy="729.6" r="12" stroke="black" fill="white"/>
<path d="M1111.2,729.6 L1135.2,729.6 M1123.2,717.6 L1123.2,741.6 " stroke="black"/>
<path d="M1187.2,601.6 L1251.2,601.6 " stroke="black" stroke-width="5"/>
<circle cx="1187.2" cy="601.6" r="12" stroke="none" fill="black"/>
<circle cx="1251.2" cy="601.6" r="12" stroke="black" fill="white"/>
<path d="M1239.2,601.6 L1263.2,601.6 M1251.2,589.6 L1251.2,613.6 " stroke="black"/>
<path d="M1187.2,729.6 L1251.2,729.6 " stroke="black" stroke-width="5"/>
<circle cx="1187.2" cy="729.6" r="12" stroke="none" fill="black"/>
<circle cx="1251.2" cy="729.6" r="12" stroke="black" fill="white"/>
<path d="M1239.2,729.6 L1263.2,729.6 M1251.2,717.6 L1251.2,741.6 " stroke="black"/>
<rect x="128" y="979.2" width="32" height="32" stroke="black" fill="white"/>
<text dominant-baseline="central" text-anchor="middle" font-family="monospace" font-size="30" x="144" y="995.2">H</text>
<rect x="256" y="979.2" width="32" height="32" stroke="black" fill="white"/>
<text dominant-baseline="central" text-anchor="middle" font-family="monospace" font-size="30" x="272" y="995.2">H</text>
<rect x="128" y="1107.2" width="32" height="32" stroke="black" fill="white"/>
<text dominant-baseline="central" text-anchor="middle" font-family="monospace" font-size="30" x="144" y="1123.2">H</text>
<rect x="256" y="1107.2" width="32" height="32" stroke="black" fill="white"/>
<text dominant-baseline="central" text-anchor="middle" font-family="monospace" font-size="30" x="272" y="1123.2">H</text>
<rect x="128" y="1235.2" width="32" height="32" stroke="black" fill="white"/>
<text dominant-baseline="central" text-anchor="middle" font-family="monospace" font-size="30" x="144" y="1251.2">H</text>
<rect x="256" y="1235.2" width="32" height="32" stroke="black" fill="white"/>
<text dominant-baseline="central" text-anchor="middle" font-family="monospace" font-size="30" x="272" y="1251.2">H</text>
<rect x="585.6" y="979.2" width="32" height="32" stroke="black" fill="black"/>
<text dominant-baseline="central" text-anchor="middle" font-family="monospace" font-size="24" x="601.6" y="995.2" fill="white">MR</text>
<rect x="713.6" y="979.2" width="32" height="32" stroke="black" fill="black"/>
<text dominant-baseline="central" text-anchor="middle" font-family="monospace" font-size="24" x="729.6" y="995.2" fill="white">MR</text>
<rect x="521.6" y="1043.2" width="32" height="32" stroke="black" fill="black"/>
<text dominant-baseline="central" text-anchor="middle" font-family="monospace" font-size="24" x="537.6" y="1059.2" fill="white">MR</text>
<rect x="649.6" y="1043.2" width="32" height="32" stroke="black" fill="black"/>
<text dominant-baseline="central" text-anchor="middle" font-family="monospace" font-size="24" x="665.6" y="1059.2" fill="white">MR</text>
<rect x="777.6" y="1043.2" width="32" height="32" stroke="black" fill="black"/>
<text dominant-baseline="central" text-anchor="middle" font-family="monospace" font-size="24" x="793.6" y="1059.2" fill="white">MR</text>
<rect x="585.6" y="1107.2" width="32" height="32" stroke="black" fill="black"/>
<text dominant-baseline="central" text-anchor="middle" font-family="monospace" font-size="24" x="601.6" y="1123.2" fill="white">MR</text>
<rect x="713.6" y="1107.2" width="32" height="32" stroke="black" fill="black"/>
<text dominant-baseline="central" text-anchor="middle" font-family="monospace" font-size="24" x="729.6" y="1123.2" fill="white">MR</text>
<rect x="521.6" y="1171.2" width="32" height="32" stroke="black" fill="black"/>
<text dominant-baseline="central" text-anchor="middle" font-family="monospace" font-size="24" x="537.6" y="1187.2" fill="white">MR</text>
<rect x="649.6" y="1171.2" width="32" height="32" stroke="black" fill="black"/>
<text dominant-baseline="central" text-anchor="middle" font-family="monospace" font-size="24" x="665.6" y="1187.2" fill="white">MR</text>
<rect x="777.6" y="1171.2" width="32" height="32" stroke="black" fill="black"/>
<text dominant-baseline="central" text-anchor="middle" font-family="monospace" font-size="24" x="793.6" y="1187.2" fill="white">MR</text>
<rect x="585.6" y="1235.2" width="32" height="32" stroke="black" fill="black"/>
<text dominant-baseline="central" text-anchor="middle" font-family="monospace" font-size="24" x="601.6" y="1251.2" fill="white">MR</text>
<rect x="713.6" y="1235.2" width="32" height="32" stroke="black" fill="black"/>
<text dominant-baseline="central" text-anchor="middle" font-family="monospace" font-size="24" x="729.6" y="1251.2" fill="white">MR</text>
<rect x="521.6" y="979.2" width="32" height="32" stroke="black" fill="black"/>
<text dominant-baseline="central" text-anchor="middle" font-family="monospace" font-size="30" x="537.6" y="995.2" fill="white">M</text>
<rect x="649.6" y="979.2" width="32" height="32" stroke="black" fill="black"/>
<text dominant-baseline="central" text-anchor="middle" font-family="monospace" font-size="30" x="665.6" y="995.2" fill="white">M</text>
<rect x="777.6" y="979.2" width="32" height="32" stroke="black" fill="black"/>
<text dominant-baseline="central" text-anchor="middle" font-family="monospace" font-size="30" x="793.6" y="995.2" fill="white">M</text>
<rect x="585.6" y="1043.2" width="32" height="32" stroke="black" fill="black"/>
<text dominant-baseline="central" text-anchor="middle" font-family="monospace" font-size="30" x="601.6" y="1059.2" fill="white">M</text>
<rect x="713.6" y="1043.2" width="32" height="32" stroke="black" fill="black"/>
<text dominant-baseline="central" text-anchor="middle" font-family="monospace" font-size="30" x="729.6" y="1059.2" fill="white">M</text>
<rect x="521.6" y="1107.2" width="32" height="32" stroke="black" fill="black"/>
<text dominant-baseline="central" text-anchor="middle" font-family="monospace" font-size="30" x="537.6" y="1123.2" fill="white">M</text>
<rect x="649.6" y="1107.2" width="32" height="32" stroke="black" fill="black"/>
<text dominant-baseline="central" text-anchor="middle" font-family="monospace" font-size="30" x="665.6" y="1123.2" fill="white">M</text>
<rect x="777.6" y="1107.2" width="32" height="32" stroke="black" fill="black"/>
<text dominant-baseline="central" text-anchor="middle" font-family="monospace" font-size="30" x="793.6" y="1123.2" fill="white">M</text>
<rect x="585.6" y="1171.2" width="32" height="32" stroke="black" fill="black"/>
<text dominant-baseline="central" text-anchor="middle" font-family="monospace" font-size="30" x="601.6" y="1187.2" fill="white">M</text>
<rect x="713.6" y="1171.2" width="32" height="32" stroke="black" fill="black"/>
<text dominant-baseline="central" text-anchor="middle" font-family="monospace" font-size="30" x="729.6" y="1187.2" fill="white">M</text>
<rect x="521.6" y="1235.2" width="32" height="32" stroke="black" fill="black"/>
<text dominant-baseline="central" text-anchor="middle" font-family="monospace" font-size="30" x="537.6" y="1251.2" fill="white">M</text>
<rect x="649.6" y="1235.2" width="32" height="32" stroke="black" fill="black"/>
<text dominant-baseline="central" text-anchor="middle" font-family="monospace" font-size="30" x="665.6" y="1251.2" fill="white">M</text>
<rect x="777.6" y="1235.2" width="32" height="32" stroke="black" fill="black"/>
<text dominant-baseline="central" text-anchor="middle" font-family="monospace" font-size="30" x="793.6" y="1251.2" fill="white">M</text>
<g id="tick_borders">
<rect id="tick_border:0:0_0:0" x="0" y="0" width="416" height="416" stroke="black" fill="none"/>
<rect id="tick_border:0:1_0:0" x="0" y="457.6" width="416" height="416" stroke="black" fill="none"/>
<rect id="tick_border:0:2_0:0" x="0" y="915.2" width="416" height="416" stroke="black" fill="none"/>
<rect id="tick_border:0:0_1:0" x="457.6" y="0" width="416" height="416" stroke="black" fill="none"/>
<rect id="tick_border:0:1_1:0" x="457.6" y="457.6" width="416" height="416" stroke="black" fill="none"/>
<rect id="tick_border:0:2_1:0" x="457.6" y="915.2" width="416" height="416" stroke="black" fill="none"/>
<rect id="tick_border:0:0_2:0" x="915.2" y="0" width="416" height="416" stroke="black" fill="none"/>
<rect id="tick_border:0:1_2:0" x="915.2" y="457.6" width="416" height="416" stroke="black" fill="none"/>
</g>
</svg>